<svg xmlns="http://www.w3.org/2000/svg" viewBox="0 0 32 32" id="facebook"><path fill="#FFF" d="M16 31.5C7.453 31.5.5 24.547.5 16S7.453.5 16 .5 31.5 7.453 31.5 16 24.547 31.5 16 31.5z"></path><path fill="#8AD5DD" d="M16 1c8.271 0 15 6.729 15 15s-6.729 15-15 15S1 24.271 1 16 7.729 1 16 1m0-1C7.163 0 0 7.163 0 16c0 8.836 7.163 16 16 16s16-7.164 16-16c0-8.837-7.163-16-16-16z"></path><path fill="#8AD5DD" d="M13.69 24.903h3.679v-8.904h2.454l.325-3.068h-2.779l.004-1.536c0-.8.076-1.229 1.224-1.229h1.534V7.097h-2.455c-2.949 0-3.986 1.489-3.986 3.992v1.842h-1.838V16h1.838v8.903z"></path></svg>